<mxfile host="app.diagrams.net" modified="2023-07-01T19:26:14.812Z" agent="Mozilla/5.0 (X11; Ubuntu; Linux x86_64; rv:109.0) Gecko/20100101 Firefox/114.0" etag="n1gCR0D0Pb6CZcj3G70O" version="21.5.2" type="device">
  <diagram id="kgpKYQtTHZ0yAKxKKP6v" name="Page-1">
    <mxGraphModel dx="2218" dy="1866" grid="1" gridSize="10" guides="1" tooltips="1" connect="1" arrows="1" fold="1" page="1" pageScale="1" pageWidth="850" pageHeight="1100" math="0" shadow="0">
      <root>
        <mxCell id="0" />
        <mxCell id="1" parent="0" />
        <mxCell id="WdbP2cVjzlMGmMmlVz-1-32" value="" style="rounded=0;whiteSpace=wrap;html=1;fillColor=default;" vertex="1" parent="1">
          <mxGeometry x="540" y="290" width="220" height="210" as="geometry" />
        </mxCell>
        <mxCell id="WdbP2cVjzlMGmMmlVz-1-29" value="" style="rounded=0;whiteSpace=wrap;html=1;fillColor=default;" vertex="1" parent="1">
          <mxGeometry x="90" y="290" width="380" height="290" as="geometry" />
        </mxCell>
        <mxCell id="WdbP2cVjzlMGmMmlVz-1-27" value="" style="rounded=0;whiteSpace=wrap;html=1;fillColor=default;" vertex="1" parent="1">
          <mxGeometry x="90" y="20" width="380" height="220" as="geometry" />
        </mxCell>
        <mxCell id="WdbP2cVjzlMGmMmlVz-1-1" value="&lt;div&gt;&lt;br&gt;&lt;/div&gt;&lt;div&gt;Disk&lt;/div&gt;" style="strokeWidth=2;html=1;shape=mxgraph.flowchart.database;whiteSpace=wrap;strokeColor=#1A1A1A;fillColor=#0066CC;" vertex="1" parent="1">
          <mxGeometry x="320" y="490" width="80" height="70" as="geometry" />
        </mxCell>
        <mxCell id="WdbP2cVjzlMGmMmlVz-1-4" style="edgeStyle=orthogonalEdgeStyle;rounded=0;orthogonalLoop=1;jettySize=auto;html=1;exitX=0.5;exitY=1;exitDx=0;exitDy=0;entryX=0.5;entryY=0;entryDx=0;entryDy=0;entryPerimeter=0;" edge="1" parent="1" source="WdbP2cVjzlMGmMmlVz-1-3" target="WdbP2cVjzlMGmMmlVz-1-1">
          <mxGeometry relative="1" as="geometry" />
        </mxCell>
        <mxCell id="WdbP2cVjzlMGmMmlVz-1-5" value="Logs" style="edgeLabel;html=1;align=center;verticalAlign=middle;resizable=0;points=[];" vertex="1" connectable="0" parent="WdbP2cVjzlMGmMmlVz-1-4">
          <mxGeometry x="-0.2322" y="1" relative="1" as="geometry">
            <mxPoint as="offset" />
          </mxGeometry>
        </mxCell>
        <mxCell id="WdbP2cVjzlMGmMmlVz-1-9" style="edgeStyle=orthogonalEdgeStyle;rounded=0;orthogonalLoop=1;jettySize=auto;html=1;exitX=0;exitY=0.5;exitDx=0;exitDy=0;entryX=1;entryY=0.5;entryDx=0;entryDy=0;" edge="1" parent="1" source="WdbP2cVjzlMGmMmlVz-1-3" target="WdbP2cVjzlMGmMmlVz-1-8">
          <mxGeometry relative="1" as="geometry" />
        </mxCell>
        <mxCell id="WdbP2cVjzlMGmMmlVz-1-10" value="Polls" style="edgeLabel;html=1;align=center;verticalAlign=middle;resizable=0;points=[];" vertex="1" connectable="0" parent="WdbP2cVjzlMGmMmlVz-1-9">
          <mxGeometry x="0.0217" y="4" relative="1" as="geometry">
            <mxPoint y="-4" as="offset" />
          </mxGeometry>
        </mxCell>
        <mxCell id="WdbP2cVjzlMGmMmlVz-1-30" style="edgeStyle=orthogonalEdgeStyle;rounded=0;orthogonalLoop=1;jettySize=auto;html=1;entryX=0.75;entryY=1;entryDx=0;entryDy=0;" edge="1" parent="1" source="WdbP2cVjzlMGmMmlVz-1-3" target="WdbP2cVjzlMGmMmlVz-1-16">
          <mxGeometry relative="1" as="geometry">
            <Array as="points">
              <mxPoint x="385" y="300" />
              <mxPoint x="385" y="300" />
            </Array>
          </mxGeometry>
        </mxCell>
        <mxCell id="WdbP2cVjzlMGmMmlVz-1-31" value="Writes Commands" style="edgeLabel;html=1;align=center;verticalAlign=middle;resizable=0;points=[];" vertex="1" connectable="0" parent="WdbP2cVjzlMGmMmlVz-1-30">
          <mxGeometry x="-0.6562" y="1" relative="1" as="geometry">
            <mxPoint x="6" y="8" as="offset" />
          </mxGeometry>
        </mxCell>
        <mxCell id="WdbP2cVjzlMGmMmlVz-1-50" style="edgeStyle=orthogonalEdgeStyle;rounded=0;orthogonalLoop=1;jettySize=auto;html=1;exitX=1;exitY=0.25;exitDx=0;exitDy=0;entryX=0;entryY=0.25;entryDx=0;entryDy=0;" edge="1" parent="1" source="WdbP2cVjzlMGmMmlVz-1-3" target="WdbP2cVjzlMGmMmlVz-1-33">
          <mxGeometry relative="1" as="geometry" />
        </mxCell>
        <mxCell id="WdbP2cVjzlMGmMmlVz-1-51" value="Relay&lt;br&gt;Info" style="edgeLabel;html=1;align=center;verticalAlign=middle;resizable=0;points=[];" vertex="1" connectable="0" parent="WdbP2cVjzlMGmMmlVz-1-50">
          <mxGeometry x="-0.7533" relative="1" as="geometry">
            <mxPoint as="offset" />
          </mxGeometry>
        </mxCell>
        <mxCell id="WdbP2cVjzlMGmMmlVz-1-3" value="som_controller" style="rounded=1;whiteSpace=wrap;html=1;absoluteArcSize=1;arcSize=14;strokeWidth=2;strokeColor=none;fillColor=#c01c28;" vertex="1" parent="1">
          <mxGeometry x="310" y="340" width="100" height="100" as="geometry" />
        </mxCell>
        <mxCell id="WdbP2cVjzlMGmMmlVz-1-8" value="gpsd" style="rounded=1;whiteSpace=wrap;html=1;absoluteArcSize=1;arcSize=14;strokeWidth=2;fillColor=#CC00CC;strokeColor=none;" vertex="1" parent="1">
          <mxGeometry x="140" y="340" width="100" height="100" as="geometry" />
        </mxCell>
        <mxCell id="WdbP2cVjzlMGmMmlVz-1-12" style="edgeStyle=orthogonalEdgeStyle;rounded=0;orthogonalLoop=1;jettySize=auto;html=1;entryX=0;entryY=0.5;entryDx=0;entryDy=0;" edge="1" parent="1" source="WdbP2cVjzlMGmMmlVz-1-11" target="WdbP2cVjzlMGmMmlVz-1-8">
          <mxGeometry relative="1" as="geometry" />
        </mxCell>
        <mxCell id="WdbP2cVjzlMGmMmlVz-1-13" value="Sends" style="edgeLabel;html=1;align=center;verticalAlign=middle;resizable=0;points=[];" vertex="1" connectable="0" parent="WdbP2cVjzlMGmMmlVz-1-12">
          <mxGeometry x="-0.1144" y="3" relative="1" as="geometry">
            <mxPoint x="-4" y="3" as="offset" />
          </mxGeometry>
        </mxCell>
        <mxCell id="WdbP2cVjzlMGmMmlVz-1-11" value="GNSS" style="shape=parallelogram;html=1;strokeWidth=2;perimeter=parallelogramPerimeter;whiteSpace=wrap;rounded=1;arcSize=12;size=0.23;strokeColor=none;fillColor=#0066CC;" vertex="1" parent="1">
          <mxGeometry x="-70" y="360" width="100" height="60" as="geometry" />
        </mxCell>
        <mxCell id="WdbP2cVjzlMGmMmlVz-1-14" value="&amp;lt;&amp;lt;hardware&amp;gt;&amp;gt;" style="shape=hexagon;perimeter=hexagonPerimeter2;whiteSpace=wrap;html=1;fixedSize=1;strokeColor=none;fillColor=#0066CC;" vertex="1" parent="1">
          <mxGeometry x="300" y="-80" width="120" height="80" as="geometry" />
        </mxCell>
        <mxCell id="WdbP2cVjzlMGmMmlVz-1-17" style="edgeStyle=orthogonalEdgeStyle;rounded=0;orthogonalLoop=1;jettySize=auto;html=1;entryX=0;entryY=0.25;entryDx=0;entryDy=0;" edge="1" parent="1" source="WdbP2cVjzlMGmMmlVz-1-15" target="WdbP2cVjzlMGmMmlVz-1-16">
          <mxGeometry relative="1" as="geometry" />
        </mxCell>
        <mxCell id="WdbP2cVjzlMGmMmlVz-1-18" value="Sends" style="edgeLabel;html=1;align=center;verticalAlign=middle;resizable=0;points=[];" vertex="1" connectable="0" parent="WdbP2cVjzlMGmMmlVz-1-17">
          <mxGeometry x="-0.002" y="5" relative="1" as="geometry">
            <mxPoint x="-104" y="5" as="offset" />
          </mxGeometry>
        </mxCell>
        <mxCell id="WdbP2cVjzlMGmMmlVz-1-15" value="RX" style="shape=parallelogram;html=1;strokeWidth=2;perimeter=parallelogramPerimeter;whiteSpace=wrap;rounded=1;arcSize=12;size=0.23;strokeColor=none;fillColor=#0066CC;" vertex="1" parent="1">
          <mxGeometry x="-71" y="76" width="100" height="60" as="geometry" />
        </mxCell>
        <mxCell id="WdbP2cVjzlMGmMmlVz-1-20" style="edgeStyle=orthogonalEdgeStyle;rounded=0;orthogonalLoop=1;jettySize=auto;html=1;exitX=0.25;exitY=1;exitDx=0;exitDy=0;entryX=0.25;entryY=0;entryDx=0;entryDy=0;" edge="1" parent="1" source="WdbP2cVjzlMGmMmlVz-1-16" target="WdbP2cVjzlMGmMmlVz-1-3">
          <mxGeometry relative="1" as="geometry" />
        </mxCell>
        <mxCell id="WdbP2cVjzlMGmMmlVz-1-22" value="Writes Packets" style="edgeLabel;html=1;align=center;verticalAlign=middle;resizable=0;points=[];" vertex="1" connectable="0" parent="WdbP2cVjzlMGmMmlVz-1-20">
          <mxGeometry x="-0.1082" y="-1" relative="1" as="geometry">
            <mxPoint x="6" y="-59" as="offset" />
          </mxGeometry>
        </mxCell>
        <mxCell id="WdbP2cVjzlMGmMmlVz-1-24" style="edgeStyle=orthogonalEdgeStyle;rounded=0;orthogonalLoop=1;jettySize=auto;html=1;" edge="1" parent="1" source="WdbP2cVjzlMGmMmlVz-1-16" target="WdbP2cVjzlMGmMmlVz-1-14">
          <mxGeometry relative="1" as="geometry" />
        </mxCell>
        <mxCell id="WdbP2cVjzlMGmMmlVz-1-25" value="Controls" style="edgeLabel;html=1;align=center;verticalAlign=middle;resizable=0;points=[];" vertex="1" connectable="0" parent="WdbP2cVjzlMGmMmlVz-1-24">
          <mxGeometry x="-0.0286" y="1" relative="1" as="geometry">
            <mxPoint as="offset" />
          </mxGeometry>
        </mxCell>
        <mxCell id="WdbP2cVjzlMGmMmlVz-1-16" value="mcu_lib" style="rounded=1;whiteSpace=wrap;html=1;absoluteArcSize=1;arcSize=14;strokeWidth=2;fillColor=#c01c28;strokeColor=none;" vertex="1" parent="1">
          <mxGeometry x="310" y="80" width="100" height="100" as="geometry" />
        </mxCell>
        <mxCell id="WdbP2cVjzlMGmMmlVz-1-34" style="edgeStyle=orthogonalEdgeStyle;rounded=0;orthogonalLoop=1;jettySize=auto;html=1;exitX=0;exitY=0.5;exitDx=0;exitDy=0;entryX=1;entryY=0.5;entryDx=0;entryDy=0;" edge="1" parent="1" source="WdbP2cVjzlMGmMmlVz-1-33" target="WdbP2cVjzlMGmMmlVz-1-3">
          <mxGeometry relative="1" as="geometry" />
        </mxCell>
        <mxCell id="WdbP2cVjzlMGmMmlVz-1-35" value="Polls" style="edgeLabel;html=1;align=center;verticalAlign=middle;resizable=0;points=[];" vertex="1" connectable="0" parent="WdbP2cVjzlMGmMmlVz-1-34">
          <mxGeometry x="-0.6276" y="-3" relative="1" as="geometry">
            <mxPoint as="offset" />
          </mxGeometry>
        </mxCell>
        <mxCell id="WdbP2cVjzlMGmMmlVz-1-48" style="edgeStyle=orthogonalEdgeStyle;rounded=0;orthogonalLoop=1;jettySize=auto;html=1;exitX=0;exitY=0.75;exitDx=0;exitDy=0;entryX=1;entryY=0.75;entryDx=0;entryDy=0;" edge="1" parent="1" source="WdbP2cVjzlMGmMmlVz-1-33" target="WdbP2cVjzlMGmMmlVz-1-3">
          <mxGeometry relative="1" as="geometry" />
        </mxCell>
        <mxCell id="WdbP2cVjzlMGmMmlVz-1-49" value="&lt;div&gt;Send&lt;/div&gt;&lt;div&gt;&amp;nbsp;Commands&lt;/div&gt;" style="edgeLabel;html=1;align=center;verticalAlign=middle;resizable=0;points=[];" vertex="1" connectable="0" parent="WdbP2cVjzlMGmMmlVz-1-48">
          <mxGeometry x="-0.4867" y="2" relative="1" as="geometry">
            <mxPoint x="15" y="-1" as="offset" />
          </mxGeometry>
        </mxCell>
        <mxCell id="WdbP2cVjzlMGmMmlVz-1-33" value="flight_deck" style="rounded=1;whiteSpace=wrap;html=1;absoluteArcSize=1;arcSize=14;strokeWidth=2;strokeColor=none;fillColor=#c01c28;" vertex="1" parent="1">
          <mxGeometry x="610" y="340" width="100" height="100" as="geometry" />
        </mxCell>
        <mxCell id="WdbP2cVjzlMGmMmlVz-1-36" value="PC" style="rounded=0;whiteSpace=wrap;html=1;" vertex="1" parent="1">
          <mxGeometry x="540" y="270" width="60" height="20" as="geometry" />
        </mxCell>
        <mxCell id="WdbP2cVjzlMGmMmlVz-1-37" value="SOM" style="rounded=0;whiteSpace=wrap;html=1;" vertex="1" parent="1">
          <mxGeometry x="90" y="270" width="60" height="20" as="geometry" />
        </mxCell>
        <mxCell id="WdbP2cVjzlMGmMmlVz-1-38" value="MCU" style="rounded=0;whiteSpace=wrap;html=1;" vertex="1" parent="1">
          <mxGeometry x="90" width="60" height="20" as="geometry" />
        </mxCell>
        <mxCell id="WdbP2cVjzlMGmMmlVz-1-40" style="edgeStyle=orthogonalEdgeStyle;rounded=0;orthogonalLoop=1;jettySize=auto;html=1;entryX=0;entryY=0.75;entryDx=0;entryDy=0;" edge="1" parent="1" source="WdbP2cVjzlMGmMmlVz-1-39" target="WdbP2cVjzlMGmMmlVz-1-16">
          <mxGeometry relative="1" as="geometry" />
        </mxCell>
        <mxCell id="WdbP2cVjzlMGmMmlVz-1-41" value="Sends" style="edgeLabel;html=1;align=center;verticalAlign=middle;resizable=0;points=[];" vertex="1" connectable="0" parent="WdbP2cVjzlMGmMmlVz-1-40">
          <mxGeometry x="-0.7323" relative="1" as="geometry">
            <mxPoint as="offset" />
          </mxGeometry>
        </mxCell>
        <mxCell id="WdbP2cVjzlMGmMmlVz-1-39" value="IMU" style="shape=parallelogram;html=1;strokeWidth=2;perimeter=parallelogramPerimeter;whiteSpace=wrap;rounded=1;arcSize=12;size=0.23;strokeColor=none;fillColor=#0066CC;" vertex="1" parent="1">
          <mxGeometry x="-80" y="150" width="100" height="60" as="geometry" />
        </mxCell>
        <mxCell id="WdbP2cVjzlMGmMmlVz-1-42" value="" style="ellipse;whiteSpace=wrap;html=1;aspect=fixed;strokeColor=none;fillColor=#0066CC;" vertex="1" parent="1">
          <mxGeometry x="520" y="80" width="20" height="20" as="geometry" />
        </mxCell>
        <mxCell id="WdbP2cVjzlMGmMmlVz-1-43" value="" style="ellipse;whiteSpace=wrap;html=1;aspect=fixed;strokeColor=none;fillColor=#C01C28;" vertex="1" parent="1">
          <mxGeometry x="520" y="60" width="20" height="20" as="geometry" />
        </mxCell>
        <mxCell id="WdbP2cVjzlMGmMmlVz-1-44" value="" style="ellipse;whiteSpace=wrap;html=1;aspect=fixed;strokeColor=none;fillColor=#CC00CC;" vertex="1" parent="1">
          <mxGeometry x="520" y="40" width="20" height="20" as="geometry" />
        </mxCell>
        <mxCell id="WdbP2cVjzlMGmMmlVz-1-45" value="System Process" style="text;html=1;strokeColor=none;fillColor=none;align=left;verticalAlign=middle;whiteSpace=wrap;rounded=0;" vertex="1" parent="1">
          <mxGeometry x="550" y="42.5" width="90" height="15" as="geometry" />
        </mxCell>
        <mxCell id="WdbP2cVjzlMGmMmlVz-1-46" value="rcplane Process" style="text;html=1;strokeColor=none;fillColor=none;align=left;verticalAlign=middle;whiteSpace=wrap;rounded=0;" vertex="1" parent="1">
          <mxGeometry x="550" y="62.5" width="90" height="15" as="geometry" />
        </mxCell>
        <mxCell id="WdbP2cVjzlMGmMmlVz-1-47" value="Physical Hardware" style="text;html=1;strokeColor=none;fillColor=none;align=left;verticalAlign=middle;whiteSpace=wrap;rounded=0;" vertex="1" parent="1">
          <mxGeometry x="550" y="82.5" width="110" height="15" as="geometry" />
        </mxCell>
      </root>
    </mxGraphModel>
  </diagram>
</mxfile>
